<svg version="1.1" id="Layer_1" xmlns="http://www.w3.org/2000/svg" xmlns:xlink="http://www.w3.org/1999/xlink" x="0px" y="0px"
	 width="100%" viewBox="0 0 1024 1024" enable-background="new 0 0 1024 1024" xml:space="preserve">
<path fill="#000000" opacity="1.000000" stroke="none" 
	d="
M539.000000,1025.000000 
	C359.333344,1025.000000 180.166672,1025.000000 1.000000,1025.000000 
	C1.000000,683.666687 1.000000,342.333344 1.000000,1.000000 
	C342.333344,1.000000 683.666687,1.000000 1025.000000,1.000000 
	C1025.000000,342.333344 1025.000000,683.666687 1025.000000,1025.000000 
	C863.166687,1025.000000 701.333313,1025.000000 539.000000,1025.000000 
M251.852264,236.500793 
	C251.852264,236.500793 251.383484,236.413605 250.889252,236.715347 
	C250.382843,237.295273 249.876419,237.875183 249.486832,238.475586 
	C249.486832,238.475586 249.503021,238.358078 248.931992,238.734222 
	C234.764923,254.710205 225.058762,272.938995 220.784302,294.444214 
	C220.757004,294.908539 220.729706,295.372833 220.302521,296.626556 
	C219.655228,310.760590 219.007919,324.894623 218.152573,339.855286 
	C218.225983,341.550812 218.299377,343.246307 218.218781,345.841064 
	C218.272324,348.570679 218.325882,351.300293 218.167252,354.795441 
	C218.237320,355.844299 218.307388,356.893188 218.218536,358.874573 
	C218.265732,368.259277 218.312927,377.643951 218.152359,387.909973 
	C218.227280,390.920471 218.302185,393.930939 218.217178,397.873871 
	C218.267685,405.259216 218.318192,412.644592 218.158386,420.941376 
	C218.237778,438.274323 218.317184,455.607239 218.255737,473.830933 
	C218.304810,476.230988 218.353867,478.631073 218.170532,481.852203 
	C218.239746,483.548645 218.308960,485.245117 218.219391,487.872894 
	C218.277634,493.591949 218.335892,499.311005 218.155014,505.931641 
	C218.343124,511.195618 218.531235,516.459595 218.448700,522.208435 
	C218.559631,522.925110 218.670547,523.641724 218.574631,524.809509 
	C218.525513,525.154175 218.603241,525.467224 218.704391,526.529968 
	C219.095001,528.722717 219.485626,530.915405 219.812759,533.968079 
	C221.990189,543.009827 224.167633,552.051575 226.484802,561.775024 
	C232.446609,572.039673 238.408417,582.304321 244.582855,592.360352 
	C244.582855,592.360352 244.339752,592.532471 244.699326,593.116455 
	C246.928848,595.598389 249.158371,598.080261 251.598846,600.413513 
	C251.598846,600.413513 251.363190,600.518677 251.738815,601.088013 
	C255.994171,605.062195 259.897491,609.518250 264.565247,612.927795 
	C285.791901,628.432983 309.665131,635.901978 335.982086,635.743958 
	C354.977142,635.629944 373.975098,635.658630 392.969177,635.863220 
	C404.021759,635.982239 410.764343,643.127808 410.779816,654.233887 
	C410.815826,680.062012 411.075806,705.893799 410.710663,731.716614 
	C410.532349,744.323914 425.447388,752.793762 435.714600,746.947327 
	C438.406982,744.765320 441.311768,742.797241 443.758453,740.367737 
	C465.066528,719.209839 486.315521,697.992188 507.521210,676.731689 
	C511.237640,673.005554 514.669739,668.995972 518.083130,665.033325 
	C518.083130,665.033325 517.999512,665.183472 518.592590,665.019043 
	C518.824097,664.686707 519.055603,664.354309 519.643982,663.909668 
	C519.870300,663.764404 519.997925,663.558105 520.582275,663.038574 
	C520.754944,662.692688 520.927551,662.346802 520.997070,662.109619 
	C520.997070,662.109619 521.105652,662.212952 521.774597,662.033936 
	C528.591797,655.060059 535.409058,648.086182 542.102112,641.003479 
	C542.102112,641.003479 541.993469,641.127808 542.585022,641.023804 
	C542.825134,640.710571 543.065308,640.397278 543.692383,639.967407 
	C543.936951,639.809021 544.071777,639.584656 544.804626,638.954956 
	C550.081238,637.929077 555.352661,636.045593 560.635376,636.013184 
	C602.058228,635.759033 643.484558,636.023438 684.906738,635.717712 
	C693.572571,635.653748 702.225830,633.890625 711.649963,633.002869 
	C714.800110,632.567505 717.950317,632.132141 721.842896,631.666321 
	C722.649109,631.472656 723.514099,631.406494 724.252686,631.066101 
	C733.579956,626.767090 742.889038,622.428650 752.038513,618.085815 
	C752.038513,618.085815 752.024658,618.250122 752.577026,618.111511 
	C762.202637,612.754456 770.747437,606.130371 777.091980,597.083923 
	C777.091980,597.083923 777.091980,597.218445 777.743530,597.006531 
	C779.426208,595.173218 781.254150,593.451965 782.769226,591.489258 
	C799.495972,569.819702 808.138550,545.394470 808.108398,517.900391 
	C808.036072,451.942810 808.117859,385.985107 808.054260,320.027527 
	C808.048462,314.054810 807.892395,308.016663 807.030212,302.122375 
	C804.171326,282.577637 797.534180,264.502747 785.040771,248.956528 
	C785.040771,248.956528 785.117371,248.980453 784.998108,248.349869 
	C784.179932,247.379425 783.361755,246.408966 782.522156,245.548889 
	C782.522156,245.548889 782.633240,245.566360 782.361145,244.934311 
	C780.634705,243.048752 778.908325,241.163208 776.619812,238.848892 
	C771.593140,234.228973 766.566406,229.609070 761.091370,224.427765 
	C748.399170,215.085648 734.695374,207.924835 718.230103,204.637238 
	C717.365845,204.775558 716.501587,204.913879 715.014832,204.782623 
	C713.388855,204.123489 711.802185,203.031052 710.130127,202.879227 
	C702.353271,202.173019 694.553162,201.264084 686.760681,201.257690 
	C570.201477,201.162216 453.642212,201.186981 337.082977,201.239014 
	C331.772522,201.241379 326.462341,201.768677 320.270874,202.012268 
	C318.141815,202.303955 315.998108,202.515076 313.886047,202.899979 
	C295.719727,206.210571 279.050201,212.911819 264.765320,224.985901 
	C264.765320,224.985901 265.014374,224.878464 264.294403,224.852814 
	C263.963684,225.174759 263.632935,225.496689 262.851379,226.252670 
	C260.837006,227.951599 258.822662,229.650528 256.278412,231.439529 
	C255.632156,232.097275 254.985886,232.755005 254.717728,233.605331 
	C254.717728,233.605331 254.358780,233.378967 253.869766,233.678879 
	C253.378983,234.246902 252.888214,234.814926 252.564117,235.628326 
	C252.564117,235.628326 252.808548,235.460236 252.063965,235.629578 
	C251.964661,236.076294 251.865356,236.523026 251.852264,236.500793 
z"/>
<path fill="#1DBDA5" opacity="1.000000" stroke="none" 
	d="
M544.096924,639.294434 
	C544.071777,639.584656 543.936951,639.809021 543.263306,640.180786 
	C542.554016,640.638733 542.273743,640.883301 541.993469,641.127808 
	C541.993469,641.127808 542.102112,641.003479 541.817444,641.123718 
	C536.345154,646.014526 531.055664,650.681091 526.021362,655.608337 
	C524.083923,657.504517 522.727051,659.993835 521.105652,662.212952 
	C521.105652,662.212952 520.997070,662.109619 520.854248,662.252014 
	C520.483276,662.693176 520.255066,662.992004 520.026855,663.290771 
	C519.997925,663.558105 519.870300,663.764404 519.229370,664.136658 
	C518.542969,664.636902 518.271240,664.910156 517.999512,665.183472 
	C517.999512,665.183472 518.083130,665.033325 517.811279,665.143188 
	C516.434082,665.956055 515.156982,666.486145 514.248596,667.387695 
	C496.229492,685.271790 478.300629,703.247070 460.246643,721.095764 
	C452.001831,729.246765 443.527313,737.165466 434.791565,745.302063 
	C427.401367,747.892944 420.331177,747.111572 417.432526,742.625427 
	C414.429626,737.977905 411.835419,733.133484 411.906616,727.017334 
	C412.187836,702.860291 411.474396,678.680054 412.262543,654.545471 
	C412.633057,643.199829 403.457336,633.442078 391.373047,633.818604 
	C371.397491,634.441101 351.384857,634.249512 331.394897,633.941711 
	C303.274994,633.508789 278.838684,623.504883 257.956970,604.667664 
	C256.057312,602.953979 253.574951,601.886353 251.363190,600.518677 
	C251.363190,600.518677 251.598846,600.413513 251.544250,600.122314 
	C249.106339,597.398254 246.723053,594.965393 244.339752,592.532471 
	C244.339752,592.532471 244.582855,592.360352 244.522339,592.088013 
	C244.169189,590.889771 244.028610,589.877747 243.560516,589.051331 
	C238.683975,580.441711 233.782745,571.845642 228.799301,563.297668 
	C228.272095,562.393311 227.176788,561.820190 226.345062,561.093323 
	C224.167633,552.051575 221.990189,543.009827 219.884705,533.066406 
	C219.981552,530.833069 220.028442,529.501404 220.028244,528.169678 
	C220.017670,457.732574 219.817429,387.294525 220.193085,316.859497 
	C220.248199,306.529175 222.194321,295.997711 224.761719,285.941315 
	C228.644424,270.732971 236.240982,257.132599 246.058350,244.809143 
	C247.552094,242.934052 248.371643,240.521851 249.503021,238.358078 
	C249.503021,238.358078 249.486832,238.475586 249.764069,238.422546 
	C250.488693,237.717529 250.936081,237.065567 251.383484,236.413605 
	C251.383484,236.413605 251.852264,236.500793 251.897583,236.436249 
	C252.231461,236.067871 252.520004,235.764053 252.808548,235.460236 
	C252.808548,235.460236 252.564117,235.628326 252.812256,235.492065 
	C253.493195,234.696869 253.925980,234.037903 254.358765,233.378967 
	C254.358780,233.378967 254.717728,233.605331 254.846344,233.501343 
	C255.586075,232.714706 256.197174,232.032074 256.808289,231.349442 
	C258.822662,229.650528 260.837006,227.951599 263.371155,225.897369 
	C264.265411,225.320862 264.639893,225.099655 265.014374,224.878448 
	C265.014374,224.878464 264.765320,224.985901 265.084595,224.867081 
	C273.668396,220.401917 281.697876,215.507217 290.253418,211.839767 
	C302.602020,206.546402 315.562805,203.186035 329.534607,203.246948 
	C332.049225,203.573059 334.199677,203.927185 336.343140,203.888947 
	C351.321228,203.621872 366.297516,203.019165 381.275085,202.995438 
	C446.016449,202.892853 510.758087,202.933044 575.499512,202.991089 
	C580.310913,202.995392 585.124512,203.841415 589.932434,203.797531 
	C608.077515,203.631866 626.219971,203.213394 644.364746,202.987839 
	C651.987061,202.893097 659.613525,202.979431 667.236328,203.097046 
	C678.381042,203.268982 689.527344,203.446487 700.666443,203.817764 
	C705.664917,203.984390 710.647522,204.626083 715.637329,205.052200 
	C716.501587,204.913879 717.365845,204.775558 718.815918,205.095154 
	C721.152588,206.378403 722.887817,207.239120 724.657043,208.023132 
	C733.728821,212.042999 743.215149,215.360809 751.680969,220.396133 
	C754.929077,222.328049 757.697449,224.563629 761.539734,224.989166 
	C766.566406,229.609070 771.593140,234.228973 776.919678,239.394684 
	C779.024170,241.815765 780.828674,243.691055 782.633240,245.566360 
	C782.633240,245.566360 782.522156,245.548889 782.502197,245.842499 
	C783.360657,247.084229 784.239014,248.032333 785.117371,248.980453 
	C785.117371,248.980453 785.040771,248.956528 785.052734,249.290131 
	C785.905823,251.407654 786.566406,253.306259 787.615784,254.957901 
	C799.776733,274.098114 806.418823,294.659576 806.199158,317.660706 
	C805.761963,363.433533 806.075562,409.213470 806.063721,454.990448 
	C806.057312,479.642914 806.518127,504.309387 805.827576,528.943176 
	C805.333984,546.548096 799.405884,562.849304 789.930420,577.743225 
	C785.757324,584.302612 781.377747,590.730713 777.091919,597.218445 
	C777.091980,597.218445 777.091980,597.083923 776.809448,597.142639 
	C768.812988,603.537964 761.088806,609.862244 753.404602,616.234741 
	C752.802002,616.734497 752.478088,617.570435 752.024658,618.250122 
	C752.024658,618.250122 752.038513,618.085815 751.702454,618.066956 
	C749.307129,618.439819 747.033752,618.406067 745.233215,619.311951 
	C741.506348,621.187012 738.138245,623.770935 734.424255,625.676758 
	C730.093689,627.899048 725.551086,629.708313 721.100464,631.696777 
	C717.950317,632.132141 714.800110,632.567505 710.948120,632.898438 
	C703.292175,633.211243 696.341431,633.904236 689.383240,633.989197 
	C674.258789,634.174011 659.130554,634.051758 644.003906,634.049194 
	C614.914185,634.044250 585.824402,634.011230 556.734802,634.051208 
	C551.862488,634.057922 546.991699,634.376648 544.096924,639.294434 
M484.540497,390.318573 
	C484.286804,390.811188 484.033142,391.303802 483.134766,392.008118 
	C473.695831,400.380585 471.457764,411.406189 472.523438,423.171082 
	C473.160767,430.207306 474.646667,437.371216 480.843445,442.991730 
	C481.749481,444.359589 482.463165,445.916077 483.591125,447.066376 
	C495.705750,459.421509 510.386963,461.968719 526.290649,456.937012 
	C541.625732,452.085205 550.651184,441.011017 552.718628,425.082001 
	C554.339233,412.596100 552.270935,400.824341 541.875488,391.246246 
	C530.349670,375.143005 500.392456,373.892700 485.532135,389.204803 
	C485.300262,389.414368 485.093323,389.646210 484.540497,390.318573 
M689.946838,440.973877 
	C689.946838,440.973877 689.811768,440.924103 690.512207,440.799988 
	C691.526917,439.773254 692.920166,438.924713 693.500000,437.693237 
	C702.944885,417.633087 698.202759,393.045868 674.316040,381.345947 
	C673.084229,380.742615 671.274292,381.319702 669.034546,381.004333 
	C663.711914,380.399292 658.389343,379.794281 652.209106,379.066132 
	C648.979736,379.646332 645.490173,379.628387 642.562256,380.901703 
	C619.951294,390.734528 612.043945,412.951172 620.541382,435.512268 
	C621.331116,437.608948 623.596252,439.149902 625.075256,440.934052 
	C625.075256,440.934052 625.090698,440.833038 625.062256,441.571930 
	C625.953552,443.111603 626.599792,444.875885 627.773682,446.156494 
	C640.351318,459.876923 661.792236,463.385010 677.838928,453.689575 
	C682.221191,451.041840 685.260864,446.172089 688.946655,442.418427 
	C688.946655,442.418427 688.909912,442.311157 689.312866,441.843994 
	C689.540649,441.508881 689.768494,441.173767 689.946838,440.973877 
M341.405853,389.085358 
	C340.253540,389.677277 338.865936,390.030029 337.984497,390.897217 
	C326.132507,402.557526 323.646576,424.716705 332.709778,439.583008 
	C342.930420,456.347748 360.792175,462.558350 378.458801,457.835297 
	C398.109680,452.581757 408.401520,437.689758 408.011688,416.859161 
	C407.705292,400.487640 399.183105,388.986420 385.087677,382.062073 
	C371.816772,375.542755 358.252686,376.315369 345.654266,384.697388 
	C344.148529,385.699219 343.273865,387.649597 342.055847,389.077606 
	C342.055847,389.077606 342.138214,389.128357 341.405853,389.085358 
z"/>
<path fill="#3AB19D" opacity="1.000000" stroke="none" 
	d="
M715.326050,204.917419 
	C710.647522,204.626083 705.664917,203.984390 700.666443,203.817764 
	C689.527344,203.446487 678.381042,203.268982 667.236328,203.097046 
	C659.613525,202.979431 651.987061,202.893097 644.364746,202.987839 
	C626.219971,203.213394 608.077515,203.631866 589.932434,203.797531 
	C585.124512,203.841415 580.310913,202.995392 575.499512,202.991089 
	C510.758087,202.933044 446.016449,202.892853 381.275085,202.995438 
	C366.297516,203.019165 351.321228,203.621872 336.343140,203.888947 
	C334.199677,203.927185 332.049225,203.573059 329.889496,203.232574 
	C331.192871,202.963547 332.508759,202.862473 333.824615,202.761398 
	C333.810425,202.524765 333.796204,202.288116 333.781982,202.051483 
	C329.571991,202.051483 325.362030,202.051483 321.152039,202.051483 
	C326.462341,201.768677 331.772522,201.241379 337.082977,201.239014 
	C453.642212,201.186981 570.201477,201.162216 686.760681,201.257690 
	C694.553162,201.264084 702.353271,202.173019 710.130127,202.879227 
	C711.802185,203.031052 713.388855,204.123489 715.326050,204.917419 
z"/>
<path fill="#45C3AD" opacity="1.000000" stroke="none" 
	d="
M777.417725,597.112488 
	C781.377747,590.730713 785.757324,584.302612 789.930420,577.743225 
	C799.405884,562.849304 805.333984,546.548096 805.827576,528.943176 
	C806.518127,504.309387 806.057312,479.642914 806.063721,454.990448 
	C806.075562,409.213470 805.761963,363.433533 806.199158,317.660706 
	C806.418823,294.659576 799.776733,274.098114 787.615784,254.957901 
	C786.566406,253.306259 785.905823,251.407654 785.064819,249.251862 
	C797.534180,264.502747 804.171326,282.577637 807.030212,302.122375 
	C807.892395,308.016663 808.048462,314.054810 808.054260,320.027527 
	C808.117859,385.985107 808.036072,451.942810 808.108398,517.900391 
	C808.138550,545.394470 799.495972,569.819702 782.769226,591.489258 
	C781.254150,593.451965 779.426208,595.173218 777.417725,597.112488 
z"/>
<path fill="#45C3AD" opacity="1.000000" stroke="none" 
	d="
M251.550995,600.803345 
	C253.574951,601.886353 256.057312,602.953979 257.956970,604.667664 
	C278.838684,623.504883 303.274994,633.508789 331.394897,633.941711 
	C351.384857,634.249512 371.397491,634.441101 391.373047,633.818604 
	C403.457336,633.442078 412.633057,643.199829 412.262543,654.545471 
	C411.474396,678.680054 412.187836,702.860291 411.906616,727.017334 
	C411.835419,733.133484 414.429626,737.977905 417.432526,742.625427 
	C420.331177,747.111572 427.401367,747.892944 434.759155,745.608276 
	C435.068878,746.213867 435.045471,746.625793 435.022064,747.037781 
	C425.447388,752.793762 410.532349,744.323914 410.710663,731.716614 
	C411.075806,705.893799 410.815826,680.062012 410.779816,654.233887 
	C410.764343,643.127808 404.021759,635.982239 392.969177,635.863220 
	C373.975098,635.658630 354.977142,635.629944 335.982086,635.743958 
	C309.665131,635.901978 285.791901,628.432983 264.565247,612.927795 
	C259.897491,609.518250 255.994171,605.062195 251.550995,600.803345 
z"/>
<path fill="#45C3AD" opacity="1.000000" stroke="none" 
	d="
M249.217514,238.546143 
	C248.371643,240.521851 247.552094,242.934052 246.058350,244.809143 
	C236.240982,257.132599 228.644424,270.732971 224.761719,285.941315 
	C222.194321,295.997711 220.248199,306.529175 220.193085,316.859497 
	C219.817429,387.294525 220.017670,457.732574 220.028244,528.169678 
	C220.028442,529.501404 219.981552,530.833069 219.916443,532.636475 
	C219.485626,530.915405 219.095001,528.722717 218.805481,525.910339 
	C218.933517,524.970764 218.891815,524.660034 218.781464,524.358398 
	C218.670547,523.641724 218.559631,522.925110 218.659454,521.450439 
	C218.711517,515.471619 218.552826,510.250824 218.394135,505.030060 
	C218.335892,499.311005 218.277634,493.591949 218.442871,487.101013 
	C218.578552,484.563110 218.490753,482.797119 218.402939,481.031128 
	C218.353867,478.631073 218.304810,476.230988 218.473083,473.007690 
	C218.809540,458.088196 218.975403,443.992035 219.013046,429.895538 
	C219.021835,426.607605 218.595078,423.318512 218.368713,420.029938 
	C218.318192,412.644592 218.267685,405.259216 218.446106,397.053040 
	C218.570068,393.164368 218.465103,390.096527 218.360123,387.028656 
	C218.312927,377.643951 218.265732,368.259277 218.436768,358.148987 
	C218.563141,356.292236 218.471298,355.161072 218.379456,354.029907 
	C218.325882,351.300293 218.272324,348.570679 218.438889,345.084045 
	C218.559540,342.560883 218.460068,340.794769 218.360611,339.028656 
	C219.007919,324.894623 219.655228,310.760590 220.607086,296.022675 
	C220.944382,294.954102 220.977127,294.489410 221.009857,294.024719 
	C225.058762,272.938995 234.764923,254.710205 249.217514,238.546143 
z"/>
<path fill="#3AB19D" opacity="1.000000" stroke="none" 
	d="
M544.450806,639.124695 
	C546.991699,634.376648 551.862488,634.057922 556.734802,634.051208 
	C585.824402,634.011230 614.914185,634.044250 644.003906,634.049194 
	C659.130554,634.051758 674.258789,634.174011 689.383240,633.989197 
	C696.341431,633.904236 703.292175,633.211243 710.565613,632.852295 
	C702.225830,633.890625 693.572571,635.653748 684.906738,635.717712 
	C643.484558,636.023438 602.058228,635.759033 560.635376,636.013184 
	C555.352661,636.045593 550.081238,637.929077 544.450806,639.124695 
z"/>
<path fill="#3AB19D" opacity="1.000000" stroke="none" 
	d="
M435.368347,746.992554 
	C435.045471,746.625793 435.068878,746.213867 435.124664,745.495728 
	C443.527313,737.165466 452.001831,729.246765 460.246643,721.095764 
	C478.300629,703.247070 496.229492,685.271790 514.248596,667.387695 
	C515.156982,666.486145 516.434082,665.956055 517.886353,665.185120 
	C514.669739,668.995972 511.237640,673.005554 507.521210,676.731689 
	C486.315521,697.992188 465.066528,719.209839 443.758453,740.367737 
	C441.311768,742.797241 438.406982,744.765320 435.368347,746.992554 
z"/>
<path fill="#45C3AD" opacity="1.000000" stroke="none" 
	d="
M320.711456,202.031876 
	C325.362030,202.051483 329.571991,202.051483 333.781982,202.051483 
	C333.796204,202.288116 333.810425,202.524765 333.824615,202.761398 
	C332.508759,202.862473 331.192871,202.963547 329.522095,203.079010 
	C315.562805,203.186035 302.602020,206.546402 290.253418,211.839767 
	C281.697876,215.507217 273.668396,220.401917 265.030670,224.742645 
	C279.050201,212.911819 295.719727,206.210571 313.886047,202.899979 
	C315.998108,202.515076 318.141815,202.303955 320.711456,202.031876 
z"/>
<path fill="#45C3AD" opacity="1.000000" stroke="none" 
	d="
M761.315552,224.708466 
	C757.697449,224.563629 754.929077,222.328049 751.680969,220.396133 
	C743.215149,215.360809 733.728821,212.042999 724.657043,208.023132 
	C722.887817,207.239120 721.152588,206.378403 719.229492,205.244232 
	C734.695374,207.924835 748.399170,215.085648 761.315552,224.708466 
z"/>
<path fill="#45C3AD" opacity="1.000000" stroke="none" 
	d="
M752.300781,618.180786 
	C752.478088,617.570435 752.802002,616.734497 753.404602,616.234741 
	C761.088806,609.862244 768.812988,603.537964 776.876709,597.143005 
	C770.747437,606.130371 762.202637,612.754456 752.300781,618.180786 
z"/>
<path fill="#45C3AD" opacity="1.000000" stroke="none" 
	d="
M721.471680,631.681580 
	C725.551086,629.708313 730.093689,627.899048 734.424255,625.676758 
	C738.138245,623.770935 741.506348,621.187012 745.233215,619.311951 
	C747.033752,618.406067 749.307129,618.439819 751.784546,618.074219 
	C742.889038,622.428650 733.579956,626.767090 724.252686,631.066101 
	C723.514099,631.406494 722.649109,631.472656 721.471680,631.681580 
z"/>
<path fill="#45C3AD" opacity="1.000000" stroke="none" 
	d="
M226.414917,561.434204 
	C227.176788,561.820190 228.272095,562.393311 228.799301,563.297668 
	C233.782745,571.845642 238.683975,580.441711 243.560516,589.051331 
	C244.028610,589.877747 244.169189,590.889771 244.416016,592.192261 
	C238.408417,582.304321 232.446609,572.039673 226.414917,561.434204 
z"/>
<path fill="#3AB19D" opacity="1.000000" stroke="none" 
	d="
M521.440125,662.123413 
	C522.727051,659.993835 524.083923,657.504517 526.021362,655.608337 
	C531.055664,650.681091 536.345154,646.014526 541.879517,641.178101 
	C535.409058,648.086182 528.591797,655.060059 521.440125,662.123413 
z"/>
<path fill="#3AB19D" opacity="1.000000" stroke="none" 
	d="
M218.263550,420.485657 
	C218.595078,423.318512 219.021835,426.607605 219.013046,429.895538 
	C218.975403,443.992035 218.809540,458.088196 218.543488,472.562317 
	C218.317184,455.607239 218.237778,438.274323 218.263550,420.485657 
z"/>
<path fill="#45C3AD" opacity="1.000000" stroke="none" 
	d="
M244.519531,592.824463 
	C246.723053,594.965393 249.106339,597.398254 251.438766,600.196655 
	C249.158371,598.080261 246.928848,595.598389 244.519531,592.824463 
z"/>
<path fill="#3AB19D" opacity="1.000000" stroke="none" 
	d="
M218.274567,505.480835 
	C218.552826,510.250824 218.711517,515.471619 218.794800,521.208008 
	C218.531235,516.459595 218.343124,511.195618 218.274567,505.480835 
z"/>
<path fill="#45C3AD" opacity="1.000000" stroke="none" 
	d="
M782.497192,245.250336 
	C780.828674,243.691055 779.024170,241.815765 777.200806,239.609070 
	C778.908325,241.163208 780.634705,243.048752 782.497192,245.250336 
z"/>
<path fill="#3AB19D" opacity="1.000000" stroke="none" 
	d="
M218.256241,387.469299 
	C218.465103,390.096527 218.570068,393.164368 218.526062,396.586853 
	C218.302185,393.930939 218.227280,390.920471 218.256241,387.469299 
z"/>
<path fill="#3AB19D" opacity="1.000000" stroke="none" 
	d="
M218.286743,481.441650 
	C218.490753,482.797119 218.578552,484.563110 218.522263,486.635315 
	C218.308960,485.245117 218.239746,483.548645 218.286743,481.441650 
z"/>
<path fill="#3AB19D" opacity="1.000000" stroke="none" 
	d="
M218.256592,339.441956 
	C218.460068,340.794769 218.559540,342.560883 218.515884,344.634399 
	C218.299377,343.246307 218.225983,341.550812 218.256592,339.441956 
z"/>
<path fill="#45C3AD" opacity="1.000000" stroke="none" 
	d="
M785.057739,248.665161 
	C784.239014,248.032333 783.360657,247.084229 782.512939,245.787323 
	C783.361755,246.408966 784.179932,247.379425 785.057739,248.665161 
z"/>
<path fill="#45C3AD" opacity="1.000000" stroke="none" 
	d="
M256.543335,231.394485 
	C256.197174,232.032074 255.586075,232.714706 254.657288,233.405045 
	C254.985886,232.755005 255.632156,232.097275 256.543335,231.394485 
z"/>
<path fill="#3AB19D" opacity="1.000000" stroke="none" 
	d="
M218.273346,354.412659 
	C218.471298,355.161072 218.563141,356.292236 218.516205,357.682739 
	C218.307388,356.893188 218.237320,355.844299 218.273346,354.412659 
z"/>
<path fill="#45C3AD" opacity="1.000000" stroke="none" 
	d="
M254.114258,233.528915 
	C253.925980,234.037903 253.493195,234.696869 252.728912,235.369385 
	C252.888214,234.814926 253.378983,234.246902 254.114258,233.528915 
z"/>
<path fill="#45C3AD" opacity="1.000000" stroke="none" 
	d="
M251.136353,236.564468 
	C250.936081,237.065567 250.488693,237.717529 249.705643,238.412292 
	C249.876419,237.875183 250.382843,237.295273 251.136353,236.564468 
z"/>
<path fill="#3AB19D" opacity="1.000000" stroke="none" 
	d="
M220.897079,294.234467 
	C220.977127,294.489410 220.944382,294.954102 220.807037,295.627991 
	C220.729706,295.372833 220.757004,294.908539 220.897079,294.234467 
z"/>
<path fill="#3AB19D" opacity="1.000000" stroke="none" 
	d="
M518.296021,665.101257 
	C518.271240,664.910156 518.542969,664.636902 519.050903,664.192810 
	C519.055603,664.354309 518.824097,664.686707 518.296021,665.101257 
z"/>
<path fill="#3AB19D" opacity="1.000000" stroke="none" 
	d="
M520.304565,663.164673 
	C520.255066,662.992004 520.483276,662.693176 520.905884,662.197632 
	C520.927551,662.346802 520.754944,662.692688 520.304565,663.164673 
z"/>
<path fill="#3AB19D" opacity="1.000000" stroke="none" 
	d="
M542.289246,641.075806 
	C542.273743,640.883301 542.554016,640.638733 543.069824,640.239136 
	C543.065308,640.397278 542.825134,640.710571 542.289246,641.075806 
z"/>
<path fill="#3AB19D" opacity="1.000000" stroke="none" 
	d="
M218.678055,524.583984 
	C218.891815,524.660034 218.933517,524.970764 218.857193,525.519714 
	C218.603241,525.467224 218.525513,525.154175 218.678055,524.583984 
z"/>
<path fill="#45C3AD" opacity="1.000000" stroke="none" 
	d="
M252.436249,235.544907 
	C252.520004,235.764053 252.231461,236.067871 251.854477,236.670715 
	C251.865356,236.523026 251.964661,236.076294 252.436249,235.544907 
z"/>
<path fill="#45C3AD" opacity="1.000000" stroke="none" 
	d="
M264.654388,224.865631 
	C264.639893,225.099655 264.265411,225.320862 263.596558,225.680359 
	C263.632935,225.496689 263.963684,225.174759 264.654388,224.865631 
z"/>
<path fill="#FBFCFB" opacity="1.000000" stroke="none" 
	d="
M688.909912,442.311157 
	C688.909912,442.311157 688.946655,442.418427 688.613342,442.547852 
	C675.651123,458.034363 655.981934,460.837555 641.688904,453.810760 
	C635.520386,450.778137 630.585815,445.235443 625.090698,440.833038 
	C625.090698,440.833038 625.075256,440.934052 625.052673,440.578247 
	C624.585083,439.334747 624.154541,438.439484 623.692993,437.560455 
	C613.037170,417.266663 620.652405,393.487122 641.148621,383.563660 
	C644.938843,381.728607 649.084900,380.628571 653.066711,379.189270 
	C658.389343,379.794281 663.711914,380.399292 669.664673,381.389130 
	C682.814148,386.427094 691.312927,394.982208 694.979309,407.896759 
	C698.307678,419.620667 695.827759,430.585785 689.811768,440.924103 
	C689.811768,440.924103 689.946838,440.973877 689.669128,441.037262 
	C689.230896,441.504150 689.070435,441.907654 688.909912,442.311157 
z"/>
<path fill="#309E8D" opacity="1.000000" stroke="none" 
	d="
M342.106689,389.160309 
	C343.273865,387.649597 344.148529,385.699219 345.654266,384.697388 
	C358.252686,376.315369 371.816772,375.542755 385.087677,382.062073 
	C399.183105,388.986420 407.705292,400.487640 408.011688,416.859161 
	C408.401520,437.689758 398.109680,452.581757 378.458801,457.835297 
	C360.792175,462.558350 342.930420,456.347748 332.709778,439.583008 
	C323.646576,424.716705 326.132507,402.557526 337.984497,390.897217 
	C338.865936,390.030029 340.253540,389.677277 341.645630,389.415161 
	C328.600372,402.832489 325.148590,420.258820 332.771118,435.758331 
	C340.425354,451.322296 356.435608,459.573761 374.036530,457.025879 
	C391.486755,454.499817 404.677612,440.183838 406.592590,421.693024 
	C408.252869,405.661194 397.363617,388.465820 381.933563,382.704926 
	C367.423584,377.287537 354.233429,379.920715 342.106689,389.160309 
z"/>
<path fill="#309E8D" opacity="1.000000" stroke="none" 
	d="
M542.124695,391.867310 
	C552.270935,400.824341 554.339233,412.596100 552.718628,425.082001 
	C550.651184,441.011017 541.625732,452.085205 526.290649,456.937012 
	C510.386963,461.968719 495.705750,459.421509 483.591125,447.066376 
	C482.463165,445.916077 481.749481,444.359589 480.890472,442.539978 
	C480.937500,442.088257 481.153961,441.870697 481.443604,442.034180 
	C497.192596,461.957611 524.065552,462.834290 540.740906,445.991791 
	C555.209778,431.377808 555.404236,410.050110 541.608215,392.431274 
	C541.895020,392.117920 542.009827,391.992615 542.124695,391.867310 
z"/>
<path fill="#309E8D" opacity="1.000000" stroke="none" 
	d="
M652.637939,379.127686 
	C649.084900,380.628571 644.938843,381.728607 641.148621,383.563660 
	C620.652405,393.487122 613.037170,417.266663 623.692993,437.560455 
	C624.154541,438.439484 624.585083,439.334747 625.103210,440.585663 
	C623.596252,439.149902 621.331116,437.608948 620.541382,435.512268 
	C612.043945,412.951172 619.951294,390.734528 642.562256,380.901703 
	C645.490173,379.628387 648.979736,379.646332 652.637939,379.127686 
z"/>
<path fill="#309E8D" opacity="1.000000" stroke="none" 
	d="
M690.161987,440.862061 
	C695.827759,430.585785 698.307678,419.620667 694.979309,407.896759 
	C691.312927,394.982208 682.814148,386.427094 670.014160,381.560547 
	C671.274292,381.319702 673.084229,380.742615 674.316040,381.345947 
	C698.202759,393.045868 702.944885,417.633087 693.500000,437.693237 
	C692.920166,438.924713 691.526917,439.773254 690.161987,440.862061 
z"/>
<path fill="#309E8D" opacity="1.000000" stroke="none" 
	d="
M625.076477,441.202484 
	C630.585815,445.235443 635.520386,450.778137 641.688904,453.810760 
	C655.981934,460.837555 675.651123,458.034363 688.598389,442.499664 
	C685.260864,446.172089 682.221191,451.041840 677.838928,453.689575 
	C661.792236,463.385010 640.351318,459.876923 627.773682,446.156494 
	C626.599792,444.875885 625.953552,443.111603 625.076477,441.202484 
z"/>
<path fill="#309E8D" opacity="1.000000" stroke="none" 
	d="
M485.892853,388.909729 
	C500.392456,373.892700 530.349670,375.143005 542.000122,391.556763 
	C542.009827,391.992615 541.895020,392.117920 541.342529,392.225250 
	C527.176819,379.010040 509.015228,376.238556 493.554138,385.063416 
	C491.151794,386.434662 488.944214,388.147217 486.458862,389.503235 
	C486.145050,389.172913 486.018951,389.041321 485.892853,388.909729 
z"/>
<path fill="#309E8D" opacity="1.000000" stroke="none" 
	d="
M480.830383,442.198120 
	C474.646667,437.371216 473.160767,430.207306 472.523438,423.171082 
	C471.457764,411.406189 473.695831,400.380585 483.560059,391.996338 
	C483.985352,391.984528 484.190460,392.173370 484.049683,392.485229 
	C473.867920,403.981445 468.958954,422.716797 481.153961,441.870697 
	C481.153961,441.870697 480.937500,442.088257 480.830383,442.198120 
z"/>
<path fill="#309E8D" opacity="1.000000" stroke="none" 
	d="
M483.882416,391.890503 
	C484.033142,391.303802 484.286804,390.811188 484.931671,390.298737 
	C485.460815,390.404236 485.598755,390.529541 485.598328,390.896851 
	C485.036804,391.483704 484.613647,391.828552 484.190491,392.173401 
	C484.190460,392.173370 483.985352,391.984528 483.882416,391.890503 
z"/>
<path fill="#309E8D" opacity="1.000000" stroke="none" 
	d="
M485.117096,390.089600 
	C485.093323,389.646210 485.300262,389.414368 485.712494,389.057251 
	C486.018951,389.041321 486.145050,389.172913 486.354401,389.702637 
	C486.250092,390.343719 486.016418,390.528442 485.736694,390.654846 
	C485.598755,390.529541 485.460815,390.404236 485.117096,390.089600 
z"/>
<path fill="#309E8D" opacity="1.000000" stroke="none" 
	d="
M689.111389,442.077576 
	C689.070435,441.907654 689.230896,441.504150 689.693848,440.969666 
	C689.768494,441.173767 689.540649,441.508881 689.111389,442.077576 
z"/>
<path fill="#FBFCFB" opacity="1.000000" stroke="none" 
	d="
M342.081268,389.118958 
	C354.233429,379.920715 367.423584,377.287537 381.933563,382.704926 
	C397.363617,388.465820 408.252869,405.661194 406.592590,421.693024 
	C404.677612,440.183838 391.486755,454.499817 374.036530,457.025879 
	C356.435608,459.573761 340.425354,451.322296 332.771118,435.758331 
	C325.148590,420.258820 328.600372,402.832489 342.011810,389.436646 
	C342.138214,389.128357 342.055847,389.077606 342.081268,389.118958 
z"/>
<path fill="#FBFCFB" opacity="1.000000" stroke="none" 
	d="
M485.598328,390.896851 
	C486.016418,390.528442 486.250092,390.343719 486.542114,389.901337 
	C488.944214,388.147217 491.151794,386.434662 493.554138,385.063416 
	C509.015228,376.238556 527.176819,379.010040 541.170532,392.413300 
	C555.404236,410.050110 555.209778,431.377808 540.740906,445.991791 
	C524.065552,462.834290 497.192596,461.957611 481.443604,442.034180 
	C468.958954,422.716797 473.867920,403.981445 484.049683,392.485229 
	C484.613647,391.828552 485.036804,391.483704 485.598328,390.896851 
z"/>
</svg>